<svg xmlns="http://www.w3.org/2000/svg" viewBox="0 0 460 380" width="460" height="380">
<rect width="460" height="380" fill="#f4f3ef"/><line x1="58" y1="209.6" x2="440" y2="209.6" stroke="#dedbd2"/><text x="50" y="213.1" text-anchor="end" font-size="10" font-family="IBM Plex Mono, monospace" fill="#8b918b">0.4</text><line x1="58" y1="178.0" x2="440" y2="178.0" stroke="#dedbd2"/><text x="50" y="181.5" text-anchor="end" font-size="10" font-family="IBM Plex Mono, monospace" fill="#8b918b">0.5</text><line x1="58" y1="146.4" x2="440" y2="146.4" stroke="#dedbd2"/><text x="50" y="149.9" text-anchor="end" font-size="10" font-family="IBM Plex Mono, monospace" fill="#8b918b">0.6</text><line x1="58" y1="114.80000000000001" x2="440" y2="114.80000000000001" stroke="#dedbd2"/><text x="50" y="118.30000000000001" text-anchor="end" font-size="10" font-family="IBM Plex Mono, monospace" fill="#8b918b">0.7</text><line x1="58" y1="83.19999999999999" x2="440" y2="83.19999999999999" stroke="#dedbd2"/><text x="50" y="86.69999999999999" text-anchor="end" font-size="10" font-family="IBM Plex Mono, monospace" fill="#8b918b">0.8</text><line x1="58" y1="51.599999999999994" x2="440" y2="51.599999999999994" stroke="#dedbd2"/><text x="50" y="55.099999999999994" text-anchor="end" font-size="10" font-family="IBM Plex Mono, monospace" fill="#8b918b">0.9</text><line x1="58" y1="20.0" x2="440" y2="20.0" stroke="#dedbd2"/><text x="50" y="23.5" text-anchor="end" font-size="10" font-family="IBM Plex Mono, monospace" fill="#8b918b">1.0</text>
<line x1="210.8" y1="209.6" x2="440" y2="20" stroke="#2f6b4f" stroke-width="1.5"
      stroke-dasharray="5 4"/>
<text x="428.53999999999996" y="38.960000000000015" text-anchor="end" font-size="10"
      font-family="Instrument Sans, sans-serif" fill="#2f6b4f">perfect calibration</text>
<polyline points="249.0,170.2896 287.2,142.1972 325.4,113.85200000000002 363.6,86.10720000000002 401.8,57.319599999999994 420.9,41.930400000000006" fill="none" stroke="#23282a" stroke-width="2"/>
<circle cx="249.0" cy="170.2896" r="3.5" fill="#23282a"/><text x="249.0" y="160.2896" text-anchor="middle" font-size="9" font-family="IBM Plex Mono, monospace" fill="#5c635f">0.52</text><circle cx="287.2" cy="142.1972" r="3.5" fill="#23282a"/><text x="287.2" y="132.1972" text-anchor="middle" font-size="9" font-family="IBM Plex Mono, monospace" fill="#5c635f">0.61</text><circle cx="325.4" cy="113.85200000000002" r="3.5" fill="#23282a"/><text x="325.4" y="103.85200000000002" text-anchor="middle" font-size="9" font-family="IBM Plex Mono, monospace" fill="#5c635f">0.70</text><circle cx="363.6" cy="86.10720000000002" r="3.5" fill="#23282a"/><text x="363.6" y="76.10720000000002" text-anchor="middle" font-size="9" font-family="IBM Plex Mono, monospace" fill="#5c635f">0.79</text><circle cx="401.8" cy="57.319599999999994" r="3.5" fill="#23282a"/><text x="401.8" y="47.319599999999994" text-anchor="middle" font-size="9" font-family="IBM Plex Mono, monospace" fill="#5c635f">0.88</text><circle cx="420.9" cy="41.930400000000006" r="3.5" fill="#23282a"/><text x="420.9" y="31.930400000000006" text-anchor="middle" font-size="9" font-family="IBM Plex Mono, monospace" fill="#5c635f">0.93</text><text x="249.0" y="354" text-anchor="middle" font-size="10" font-family="IBM Plex Mono, monospace" fill="#8b918b">0.50</text><text x="287.2" y="354" text-anchor="middle" font-size="10" font-family="IBM Plex Mono, monospace" fill="#8b918b">0.60</text><text x="325.4" y="354" text-anchor="middle" font-size="10" font-family="IBM Plex Mono, monospace" fill="#8b918b">0.70</text><text x="363.6" y="354" text-anchor="middle" font-size="10" font-family="IBM Plex Mono, monospace" fill="#8b918b">0.80</text><text x="401.8" y="354" text-anchor="middle" font-size="10" font-family="IBM Plex Mono, monospace" fill="#8b918b">0.90</text><text x="420.9" y="354" text-anchor="middle" font-size="10" font-family="IBM Plex Mono, monospace" fill="#8b918b">0.95</text>
<text x="249.0" y="372" text-anchor="middle" font-size="10"
      font-family="Instrument Sans, sans-serif" fill="#5c635f">nominal interval level</text>
<text x="14" y="178.0" font-size="10" font-family="Instrument Sans, sans-serif"
      fill="#5c635f" transform="rotate(-90 14 178.0)" text-anchor="middle">empirical coverage</text>
</svg>